#!OML:ASF E:/inclinewalkrobotboard/Project1/Captureday1/Session1/subject1.ASF
:FULLY-SPECIFIED
:DEGREES
188
root 0 0 0 -0.3909188292508785 -2.0292016987452453 -3.8802441008783175
lowerback 16.489346211066483 1.1060111461335518 -0.11589720071237042
upperback 0.687778595707686 1.4500856434696707 0.32968468200190104
thorax -8.581492207331868 0.6869728931930495 0.05108231859873835
lowerneck -7.469309907744921 -3.2691122516674262 1.2862577708481795
upperneck -5.7825784317692595 -4.245680776441416 1.7540425898960548
head -0.6620814551997256 -2.198048156765705 0.24502463057336715
rclavicle -3.806761995416008E-16 1.5823063335484872E-17
rhumerus 12.067699999546726 0.4655736044350345 -39.47433427388146
rradius 118.6803131088709
rwrist -30.757016811879662
rhand -11.692075427888003 -36.4903881158677
rfingers 7.125019999999963
rthumb 14.39198903139217 -65.9083270235479
lclavicle -4.079457176397481E-16 -4.647903718918081E-16
lhumerus -43.32268257728778 -0.3881237317560491 83.14855736969339
lradius 45.24131238628283
lwrist 1.9520875512824702
lhand -15.607444060888604 -12.133312967534401
lfingers 7.125019999999933
lthumb 10.53564454377538 17.001859445533988
rfemur -2.7817719230539657 1.0351488901277406 5.562870897047187
rtibia 8.329980150884497
rfoot -1.5680937803641308 -1.3572698828759524
rtoes 0.797550360541113
lfemur -6.512996625755691 -3.5715260540964144 -12.23158252973089
ltibia 27.40345689647688
lfoot -19.27404752496246 7.976559688794811
ltoes -43.32621660637779
189
root 0 0 0 -0.39061680759676254 -2.029464283783758 -3.8801550475091564
lowerback 16.490921851583153 1.1049921734291925 -0.11651884415926761
upperback 0.6869809495617737 1.448602414646655 0.3297498322831831
thorax -8.583239789564761 0.686253944807769 0.05160323367920616
lowerneck -7.468675192619388 -3.26799105511878 1.2883900685729435
upperneck -5.793873810634608 -4.2437192740396075 1.751559097132753
head -0.6660264386174823 -2.1973783463199985 0.24419323200711204
rclavicle -3.8039397175864083E-16 1.5970940017347564E-17
rhumerus 12.0703951331461 0.47064350682997436 -39.47068934832927
rradius 118.69168385903089
rwrist -30.762283122622527
rhand -11.690073751266164 -36.50212010971258
rfingers 7.125019999999963
rthumb 14.393870522797597 -65.91961201616184
lclavicle -4.079848615157455E-16 -4.647229807926909E-16
lhumerus -43.32420290485403 -0.38845477184424715 83.14864199393999
lradius 45.24417900321521
lwrist 1.951837345784126
lhand -15.605737155357096 -12.138660476431522
lfingers 7.125019999999933
lthumb 10.537149821899817 16.996871666257835
rfemur -2.784678453774264 1.036339850269476 5.569008624294964
rtibia 8.338531422156898
rfoot -1.5699773172629121 -1.358785449880565
rtoes 0.7984675729815696
lfemur -6.512508727836982 -3.5718787702201684 -12.230295607513415
ltibia 27.402349987613768
lfoot -19.276430897784145 7.978690423214234
ltoes -43.33320163028322
190
root 0 0 0 -0.3899123418896704 -2.029458257925165 -3.880794241349917
lowerback 16.49056030915411 1.105121482773625 -0.11629021673370621
upperback 0.6867561411864825 1.4487406537257013 0.32956552571593345
thorax -8.583264609320075 0.6863393379728875 0.05126387885881922
lowerneck -7.466703029956494 -3.2677175809668264 1.2891785551526147
upperneck -5.795688116070487 -4.243520611029713 1.7518086948948735
head -0.6671274020633238 -2.197263263804986 0.24424295117451839
rclavicle -3.801887351987939E-16 1.629402241918473E-17
rhumerus 12.076486302814118 0.47868771173188307 -39.463441974381176
rradius 118.711913631832
rwrist -30.771845639702196
rhand -11.68702767701554 -36.520965796790094
rfingers 7.125019999999963
rthumb 14.396745913674893 -65.93793276393436
lclavicle -4.0787907141683915E-16 -4.643529287989092E-16
lhumerus -43.32791085267264 -0.3884891757388029 83.14934228481945
lradius 45.24972349069762
lwrist 1.9498988569361053
lhand -15.601394966149911 -12.152501120600986
lfingers 7.1250199999999335
lthumb 10.541264719178507 16.98372775317013
rfemur -2.7844377606808033 1.0363173472972045 5.568675608848601
rtibia 8.337490169432371
rfoot -1.5700578320930725 -1.3586963276767423
rtoes 0.7983466049323888
lfemur -6.511383072500534 -3.572731124973476 -12.227596726035854
ltibia 27.399878681875343
lfoot -19.281287859139148 7.982940748544534
ltoes -43.34732950757191
191
root 0 0 0 -0.3916216278356186 -2.0288956853654354 -3.880966641965516
lowerback 16.49042585320488 1.1083703813828172 -0.11464721579504777
upperback 0.6883243121409244 1.4534393468134272 0.3290660122665423
thorax -8.58110466032163 0.6885658394575472 0.049278357044031496
lowerneck -7.4711246658096755 -3.2720414316289905 1.2827594919696468
upperneck -5.775460679546104 -4.250378326511086 1.7586767738108182
head -0.6595489116750981 -2.1998893270421043 0.24654852795886792
rclavicle -3.7942727861873086E-16 1.5491044967840252E-17
rhumerus 12.074460445722352 0.4572722020115805 -39.4722109673486
rradius 118.67519624512207
rwrist -30.754426959215376
rhand -11.696485462640018 -36.472023736167856
rfingers 7.125019999999963
rthumb 14.388094637809148 -65.89026437038498
lclavicle -4.0976827615974363E-16 -4.64224934249993E-16
lhumerus -43.31867726286836 -0.38802896165071155 83.14890894871921
lradius 45.23532984158483
lwrist 1.9525764969593569
lhand -15.610844095725142 -12.123135933463526
lfingers 7.125019999999933
lthumb 10.532450216023303 17.01188503195864
rfemur -2.779889538460682 1.0347732772893714 5.560326770702158
rtibia 8.324979958970912
rfoot -1.566906028012319 -1.3562903186313227
rtoes 0.797683499173816
lfemur -6.514378845719991 -3.5707346420581327 -12.2337715854857
ltibia 27.406245082727214
lfoot -19.270061564865678 7.973363053232061
ltoes -43.31525170170307
192
root 0 0 0 -0.3912072353129421 -2.02942814660479 -3.880012661681346
lowerback 16.492010693884048 1.1053766169373231 -0.1164497828016322
upperback 0.686895198488525 1.4491814254864641 0.32964141214725395
thorax -8.583883653050663 0.6865088821040228 0.051351381032567756
lowerneck -7.470508032831647 -3.2688058025072415 1.2874324401258552
upperneck -5.794951601225847 -4.244798298643847 1.7521342734437355
head -0.6659484993571496 -2.1978745341535677 0.24439674162932548
rclavicle -3.807966905919832E-16 1.5802926091345622E-17
rhumerus 12.068842608172709 0.46450551034986987 -39.47372685520985
rradius 118.68026485292086
rwrist -30.75682631672232
rhand -11.692595104361587 -36.4883707738543
rfingers 7.125019999999963
rthumb 14.391495689119427 -65.9063833603226
lclavicle -4.078297947913562E-16 -4.647540594092678E-16
lhumerus -43.3233655930148 -0.3880699212140851 83.1486483937839
lradius 45.24218933992306
lwrist 1.9517359163164314
lhand -15.606720492155695 -12.135557311614443
lfingers 7.125019999999933
lthumb 10.536328446014348 16.999684641266178
rfemur -2.7825995968565254 1.0354989969611557 5.56470338512198
rtibia 8.33268100134446
rfoot -1.56860834039129 -1.3576961372470335
rtoes 0.7978933667506403
lfemur -6.513758577894851 -3.5710126214584097 -12.232929394317184
ltibia 27.40503289034557
lfoot -19.271467929853156 7.974344674253176
ltoes -43.31903519946259
193
root 0 0 0 -0.39076144199015805 -2.0295818829829884 -3.8802828554036344
lowerback 16.492701725716074 1.1049476461515337 -0.11662875595438071
upperback 0.6863445784098376 1.448538299976144 0.3295808762935407
thorax -8.584851504043822 0.686200387486426 0.05141635544780798
lowerneck -7.469399957805285 -3.2681479992416405 1.288849634911894
upperneck -5.801720537899524 -4.243765468633693 1.7510044786684036
head -0.6685202596533282 -2.1975060100745294 0.24400229058023737
rclavicle -3.8052288725847987E-16 1.5988603992321696E-17
rhumerus 12.073120867854477 0.47026547811895014 -39.46862305730339
rradius 118.69473824746905
rwrist -30.76352297549239
rhand -11.690414543560772 -36.501855458711276
rfingers 7.125019999999963
rthumb 14.393547871621497 -65.91936333465071
lclavicle -4.078792092621872E-16 -4.646598419498738E-16
lhumerus -43.32484401829958 -0.38835199535514286 83.14879762589139
lradius 45.24493790494354
lwrist 1.9513887550103275
lhand -15.605001646843956 -12.140949357028429
lfingers 7.125019999999933
lthumb 10.537858120085337 16.99468274322355
rfemur -2.7858298711200886 1.0368282715135306 5.57153835142921
rtibia 8.342157830657275
rfoot -1.570733950669684 -1.3593868996735705
rtoes 0.7988971479976068
lfemur -6.513060755541675 -3.5715331735075613 -12.231124858441861
ltibia 27.403417590961823
lfoot -19.274795955388427 7.977303942056222
ltoes -43.32873143874242
194
root 0 0 0 -0.38993036478511334 -2.0294839615707514 -3.8811717269577235
lowerback 16.491501782886147 1.1055032349268321 -0.11607291681846466
upperback 0.6863432351395057 1.4492829435328758 0.32932015338865683
thorax -8.58415910149535 0.6865843290803606 0.05076759032436018
lowerneck -7.467007651509939 -3.2681843076179136 1.289090493884748
upperneck -5.79951928423808 -4.24422148875373 1.7522807867063988
head -0.6683918709983159 -2.1975902599790116 0.24438404248616438
rclavicle -3.80313517683417E-16 1.6331405605381034E-17
rhumerus 12.079917520814924 0.4787191584141439 -39.46069888128686
rradius 118.7164981145143
rwrist -30.773803147172057
rhand -11.687247131671628 -36.521692920545135
rfingers 7.125019999999963
rthumb 14.396539094104414 -65.93864114272279
lclavicle -4.0777097774615896E-16 -4.642738368690404E-16
lhumerus -43.32853850001537 -0.3883473798164725 83.14953506440008
lradius 45.25040918412703
lwrist 1.949378249595014
lhand -15.600641810549188 -12.15484677580553
lfingers 7.1250199999999335
lthumb 10.541998406695004 16.98149166580919
rfemur -2.7855550199745025 1.036793324077192 5.571129362574586
rtibia 8.340959843926774
rfoot -1.5708151814693458 -1.3592850665946652
rtoes 0.7987445448954593
lfemur -6.511667338517448 -3.572582117488059 -12.227867061141282
ltibia 27.40035094578733
lfoot -19.28069772232276 7.98246121022583
ltoes -43.345814281664154
